# xmcd
#
# Track frame offsets:
#	150
#	17666
#	34616
#	52225
#	67339
#	84655
#	103593
#	110729
#	114674
#	131606
#	150472
#	166882
#	184787
#
# Disc length: 2639 seconds
# Revision: 0
# Processed by: cddbd v1.5.2PL0 Copyright (c) Steve Scherf et al.
# Submitted via: dBpowerAMP V12.0
#
DISCID=b20a4d0d
DTITLE=Priscillia - Un Peu de Moi
DYEAR=2010
DGENRE=World
TTITLE0=Vivre Loin de Toi
TTITLE1=Le Bon Choix
TTITLE2=Dis le Moi Encore
TTITLE3=Magia D Amor
TTITLE4=Pars
TTITLE5=Ce Vou Sel
TTITLE6=Interlude
TTITLE7=Intro Avec Toi
TTITLE8=Avec Toi
TTITLE9=Mwen Vlew
TTITLE10=J'Aimerai Te Dire
TTITLE11=Mèné Mwen
TTITLE12=Mon Ame Soeur
EXTD=
EXTT0=
EXTT1=
EXTT2=
EXTT3=
EXTT4=
EXTT5=
EXTT6=
EXTT7=
EXTT8=
EXTT9=
EXTT10=
EXTT11=
EXTT12=
PLAYORDER=
